<?xml version="1.0" encoding="UTF-8"?>
<svg width="33px" height="32px" viewBox="0 0 33 32" version="1.1" xmlns="http://www.w3.org/2000/svg" xmlns:xlink="http://www.w3.org/1999/xlink">
    <title>C2CF4DB8-96C3-4BB1-9569-73540E407734</title>
    <g id="Design-System" stroke="none" stroke-width="1" fill="none" fill-rule="evenodd">
        <g id="Symbols" transform="translate(-768.000000, -481.000000)" fill="#8B929C" fill-rule="nonzero">
            <g id="symbol/bell" transform="translate(768.000000, 481.000000)">
                <path d="M17.55,28 C17.55,30.1306667 15.6708,32 13.53915,32 C11.4075,32 9.45,30.1306667 9.45,28 L17.55,28 Z M17.73495,5.26 C16.86555,4.76133333 16.32825,3.83333333 16.3296,2.83333333 L16.3296,2.82933333 C16.33095,1.26666667 15.0633,0 13.5,0 C11.9367,0 10.66905,1.26666667 10.66905,2.82933333 L10.66905,2.83333333 C10.6704,3.83466667 10.13445,4.76133333 9.2637,5.26 C2.9619,8.872 6.58395,20.88 0,23.0013333 L0,25.3333333 L27,25.3333333 L27,23.0013333 C20.41605,20.88 24.03945,8.87066667 17.73495,5.26 Z M13.5,1.33333333 C14.2452,1.33333333 14.85,1.932 14.85,2.66666667 C14.85,3.40266667 14.2452,4 13.5,4 C12.7548,4 12.15,3.40266667 12.15,2.66666667 C12.15,1.932 12.7548,1.33333333 13.5,1.33333333 Z M4.79115,22.6666667 C6.3963,20.444 6.9579,17.4786667 7.44255,14.9133333 C8.046,11.7266667 8.6157,8.716 10.62045,7.568 C12.48345,6.5 14.61105,6.55466667 16.3809,7.568 C18.38565,8.716 18.95535,11.7266667 19.5588,14.9133333 C20.04345,17.4786667 20.60505,20.444 22.2102,22.6666667 L4.79115,22.6666667 Z" id="Shape"></path>
            </g>
        </g>
    </g>
</svg>