<?xml version="1.0" encoding="UTF-8"?>
<svg width="16px" height="16px" viewBox="0 0 16 16" version="1.1" xmlns="http://www.w3.org/2000/svg" xmlns:xlink="http://www.w3.org/1999/xlink">
    <title>F49573AC-A833-4467-8D60-09B74CE6F8F0</title>
    <g id="Design-System" stroke="none" stroke-width="1" fill="none" fill-rule="evenodd">
        <g id="Fields" transform="translate(-2241.000000, -222.000000)" fill="#DC5F4F" fill-rule="nonzero">
            <g id="ux/field/2col/active-copy-22" transform="translate(1968.000000, 178.000000)">
                <g id="Shape" transform="translate(273.000000, 44.000000)">
                    <path d="M16,14.4306667 L11.8301483,10.294 C12.6143895,9.224 13.0780797,7.908 13.0780797,6.48666667 C13.0780797,2.91 10.1447352,0 6.53870385,0 C2.93334453,0 0,2.91 0,6.48666667 C0,10.064 2.93334453,12.9733333 6.53870385,12.9733333 C7.90558192,12.9733333 9.17501785,12.5553333 10.226049,11.8413333 L14.4180772,16 L16,14.4306667 L16,14.4306667 Z M1.91793019,6.48666667 C1.91793019,3.95866667 3.9910958,1.902 6.53937587,1.902 C9.08765593,1.902 11.1608215,3.95866667 11.1608215,6.48666667 C11.1608215,9.01466667 9.08765593,11.0713333 6.53937587,11.0713333 C3.99042379,11.0713333 1.91793019,9.01466667 1.91793019,6.48666667 Z"></path>
                </g>
            </g>
        </g>
    </g>
</svg>