<?xml version="1.0" encoding="UTF-8"?>
<svg width="23px" height="21px" viewBox="0 0 23 21" version="1.1" xmlns="http://www.w3.org/2000/svg" xmlns:xlink="http://www.w3.org/1999/xlink">
    <title>04969D2E-8B55-4803-810E-82CBCD678DA2</title>
    <g id="Design-System" stroke="none" stroke-width="1" fill="none" fill-rule="evenodd">
        <g id="Symbols" transform="translate(-508.000000, -792.000000)" fill="#DC5F4F" fill-rule="nonzero">
            <g id="Shape" transform="translate(508.000000, 792.500000)">
                <path d="M15.3333333,13.9520202 L12.4583333,13.9520202 L12.4583333,19.3181818 L10.5416667,19.3181818 L10.5416667,13.9520202 L7.66666667,13.9520202 L11.5,9.65909091 L15.3333333,13.9520202 Z M18.667375,7.61136364 C18.4642083,3.37102273 15.3390833,-3.55271368e-15 11.5,-3.55271368e-15 C7.66091667,-3.55271368e-15 4.53579167,3.37102273 4.332625,7.61136364 C1.86970833,8.1082702 0,10.5155303 0,13.415404 C0,16.6748106 2.360375,19.3181818 5.27083333,19.3181818 L8.625,19.3181818 L8.625,17.1717172 L5.27083333,17.1717172 C3.42125,17.1717172 1.91666667,15.4867424 1.91666667,13.415404 C1.91666667,10.4135732 4.292375,9.30170455 6.16495833,9.4229798 C6.00491667,4.89608586 8.28095833,2.14646465 11.5,2.14646465 C14.809125,2.14646465 17.1455417,5.14829545 16.8350417,9.4229798 C18.5073333,9.37361111 21.0833333,10.2289773 21.0833333,13.415404 C21.0833333,15.4867424 19.57875,17.1717172 17.7291667,17.1717172 L14.375,17.1717172 L14.375,19.3181818 L17.7291667,19.3181818 C20.639625,19.3181818 23,16.6748106 23,13.415404 C23,10.5155303 21.1302917,8.1082702 18.667375,7.61136364 Z"></path>
            </g>
        </g>
    </g>
</svg>